REM DIRINDEX 1\2,1\3,1\4,1\5
REM DIRNAME folder01,folder02,folder03,folder04,folder05
TITLE ""
FILE "1Q_t_0200-0209.mp3" MP3
  TRACK 01 AUDIO
    TITLE "3:cjc004_1500"
    INDEX 01 00:00:00
  TRACK 02 AUDIO
    TITLE "0:"
    INDEX 01 00:01:03
  TRACK 03 AUDIO
    TITLE "4:cjc004_1501"
    INDEX 01 00:01:32
  TRACK 04 AUDIO
    TITLE "0:"
    INDEX 01 00:02:51
  TRACK 05 AUDIO
    TITLE "5:cjc004_1502"
    INDEX 01 00:03:04
  TRACK 06 AUDIO
    TITLE "0:"
    INDEX 01 00:07:58
  TRACK 07 AUDIO
    TITLE "3:cjc004_1503"
    INDEX 01 00:08:38
  TRACK 08 AUDIO
    TITLE "0:"
    INDEX 01 00:09:63
  TRACK 09 AUDIO
    TITLE "4:cjc004_1504"
    INDEX 01 00:10:16
  TRACK 10 AUDIO
    TITLE "0:"
    INDEX 01 00:11:52
  TRACK 11 AUDIO
    TITLE "5:cjc004_1505"
    INDEX 01 00:12:07
  TRACK 12 AUDIO
    TITLE "0:"
    INDEX 01 00:16:42
  TRACK 13 AUDIO
    TITLE "3:cjc004_1506"
    INDEX 01 00:17:14
  TRACK 14 AUDIO
    TITLE "0:"
    INDEX 01 00:18:23
  TRACK 15 AUDIO
    TITLE "4:cjc004_1507"
    INDEX 01 00:18:52
  TRACK 16 AUDIO
    TITLE "0:"
    INDEX 01 00:19:54
  TRACK 17 AUDIO
    TITLE "5:cjc004_1508"
    INDEX 01 00:20:08
  TRACK 18 AUDIO
    TITLE "0:"
    INDEX 01 00:24:37
  TRACK 19 AUDIO
    TITLE "3:cjc004_1509"
    INDEX 01 00:25:13
  TRACK 20 AUDIO
    TITLE "0:"
    INDEX 01 00:26:11
  TRACK 21 AUDIO
    TITLE "4:cjc004_1510"
    INDEX 01 00:26:34
  TRACK 22 AUDIO
    TITLE "0:"
    INDEX 01 00:27:53
  TRACK 23 AUDIO
    TITLE "5:cjc004_1511"
    INDEX 01 00:28:02
  TRACK 24 AUDIO
    TITLE "0:"
    INDEX 01 00:31:51
  TRACK 25 AUDIO
    TITLE "3:cjc004_1512"
    INDEX 01 00:32:25
  TRACK 26 AUDIO
    TITLE "0:"
    INDEX 01 00:33:21
  TRACK 27 AUDIO
    TITLE "4:cjc004_1513"
    INDEX 01 00:33:38
  TRACK 28 AUDIO
    TITLE "0:"
    INDEX 01 00:34:53
  TRACK 29 AUDIO
    TITLE "5:cjc004_1514"
    INDEX 01 00:35:04
  TRACK 30 AUDIO
    TITLE "0:"
    INDEX 01 00:38:69
  TRACK 31 AUDIO
    TITLE "3:cjc004_1515"
    INDEX 01 00:39:51
  TRACK 32 AUDIO
    TITLE "0:"
    INDEX 01 00:40:48
  TRACK 33 AUDIO
    TITLE "4:cjc004_1516"
    INDEX 01 00:41:06
  TRACK 34 AUDIO
    TITLE "0:"
    INDEX 01 00:42:33
  TRACK 35 AUDIO
    TITLE "5:cjc004_1517"
    INDEX 01 00:43:07
  TRACK 36 AUDIO
    TITLE "0:"
    INDEX 01 00:46:72
  TRACK 37 AUDIO
    TITLE "3:cjc004_1518"
    INDEX 01 00:47:56
  TRACK 38 AUDIO
    TITLE "0:"
    INDEX 01 00:48:69
  TRACK 39 AUDIO
    TITLE "4:cjc004_1519"
    INDEX 01 00:49:23
  TRACK 40 AUDIO
    TITLE "0:"
    INDEX 01 00:50:46
  TRACK 41 AUDIO
    TITLE "5:cjc004_1520"
    INDEX 01 00:50:74
  TRACK 42 AUDIO
    TITLE "0:"
    INDEX 01 00:55:50
  TRACK 43 AUDIO
    TITLE "3:cjc004_1521"
    INDEX 01 00:56:31
  TRACK 44 AUDIO
    TITLE "0:"
    INDEX 01 00:57:35
  TRACK 45 AUDIO
    TITLE "4:cjc004_1522"
    INDEX 01 00:57:70
  TRACK 46 AUDIO
    TITLE "0:"
    INDEX 01 00:59:38
  TRACK 47 AUDIO
    TITLE "5:cjc004_1523"
    INDEX 01 00:59:71
  TRACK 48 AUDIO
    TITLE "0:"
    INDEX 01 01:04:60
  TRACK 49 AUDIO
    TITLE "3:cjc004_1524"
    INDEX 01 01:05:40
  TRACK 50 AUDIO
    TITLE "0:"
    INDEX 01 01:06:49
  TRACK 51 AUDIO
    TITLE "4:cjc004_1525"
    INDEX 01 01:07:21
  TRACK 52 AUDIO
    TITLE "0:"
    INDEX 01 01:09:12
  TRACK 53 AUDIO
    TITLE "5:cjc004_1526"
    INDEX 01 01:09:40
  TRACK 54 AUDIO
    TITLE "0:"
    INDEX 01 01:14:17
  TRACK 55 AUDIO
    TITLE "3:cjc004_1527"
    INDEX 01 01:15:01
  TRACK 56 AUDIO
    TITLE "0:"
    INDEX 01 01:15:72
  TRACK 57 AUDIO
    TITLE "4:cjc004_1528"
    INDEX 01 01:16:18
  TRACK 58 AUDIO
    TITLE "0:"
    INDEX 01 01:17:35
  TRACK 59 AUDIO
    TITLE "5:cjc004_1529"
    INDEX 01 01:17:61
  TRACK 60 AUDIO
    TITLE "0:"
    INDEX 01 01:22:33
